# xmcd
#
# Track frame offsets:
#	150
#	12841
#	25078
#	36125
#	47556
#	58639
#	70923
#	83081
#	97863
#	109904
#	121976
#	133157
#
# Disc length: 1942 seconds
#
# Revision: 0
# Processed by: cddbd v1.5.2PL0 Copyright (c) Steve Scherf et al.
# Submitted via: EasyCDDAExtractor 10.0.2.1
#
DISCID=9507940c
DTITLE=Elton Brit - Elton Britt Sings
DYEAR=1969
DGENRE=Country
TTITLE0=My Dearest, My Darling
TTITLE1=Cowpoke Yodel
TTITLE2=Anyone But You
TTITLE3=Broken Wings
TTITLE4=Two Hearts Are Better Than One
TTITLE5=After We Say Goodbye
TTITLE6=Ridin' With My Gal
TTITLE7=Lorelei
TTITLE8=Rotation Blues
TTITLE9=I'm All That's Left
TTITLE10=Rainbow In My Heart
TTITLE11=The Game Of Broken Hearts
EXTD=
EXTT0=
EXTT1=
EXTT2=
EXTT3=
EXTT4=
EXTT5=
EXTT6=
EXTT7=
EXTT8=
EXTT9=
EXTT10=
EXTT11=
PLAYORDER=
